# xmcd CD database file
#
# Track frame offsets:
#	150
#	16784
#	33376
#	50815
#	68533
#	83158
#	99333
#	115170
#	130756
#	147505
#	166669
#	184044
#	201317
#	219318
#	239022
#	254153
#	272584
#	289881
#	306354
#	327218
#
# Disc length: 4543 seconds
#
# Revision: 1
# Processed by: cddbd v1.5.2PL0 Copyright (c) Steve Scherf et al.
# Submitted via: CDex 1.70beta3
#
DISCID=2711bd14
DTITLE=Various Artist - Jazz In The Mix
DYEAR=2011
DGENRE=Jazz
TTITLE0=Jazzin' park - Autumn Leaves
TTITLE1=i-DEAL - I Got Rhythm
TTITLE2=John Glider - Little Brown Jug
TTITLE3=Luca Lucas Jr. - In The Mood
TTITLE4=Megio S. Grabar - St．Thomas
TTITLE5=DJ KGO AKA Tanaka Keigo - Recard Bossa Nova
TTITLE6=Maaayo - Batucada
TTITLE7=Mathmos - Blue Bossa
TTITLE8=Ogiek - My Favorite Things
TTITLE9=KENSHU Feat. eLio - Moanin
TTITLE10=KENSHU Feat. eLio - Take Five
TTITLE11=Threemason - Arrivee Des Caminneur
TTITLE12=Lanquids - Jukebox
TTITLE13=Plugnote - You’ve Got To Have Freedom
TTITLE14=Plugnote - Waltz For Debby
TTITLE15=Plugnote - I Will Wait For You
TTITLE16=liquid music - Love Theme From Spartacus
TTITLE17=liquid music - Fly Me To The Moon
TTITLE18=DANCE MUSIC COMPANY - Moonlight Serenade
TTITLE19=PiANO MASTER - When You Wish Upon A Star
EXTD=YEAR: 2011
EXTT0=
EXTT1=
EXTT2=
EXTT3=
EXTT4=
EXTT5=
EXTT6=
EXTT7=
EXTT8=
EXTT9=
EXTT10=
EXTT11=
EXTT12=
EXTT13=
EXTT14=
EXTT15=
EXTT16=
EXTT17=
EXTT18=
EXTT19=
PLAYORDER=
